P2
10 10
255
0 0 0 0 0 0 0 0 0 0 
0 0 0 0 0 0 0 0 0 0 
0 0 0 51 102 153 204 255 0 0 
0 0 0 51 102 153 204 255 0 0 
0 0 0 51 102 153 204 255 0 0 
0 0 0 51 102 153 204 255 0 0 
0 0 0 51 102 153 204 255 0 0 
0 0 0 51 102 153 204 255 0 0 
0 0 0 0 0 0 0 0 0 0 
0 0 0 0 0 0 0 0 0 0 
